{
    "asset" : {
        "generator" : "Khronos glTF Blender I/O v1.1.45",
        "version" : "2.0"
    },
    "scene" : 0,
    "scenes" : [
        {
            "name" : "Scene",
            "nodes" : [
                0
            ]
        }
    ],
    "nodes" : [
        {
            "mesh" : 0,
            "name" : "lowpoli",
            "rotation" : [
                0.7071068286895752,
                0,
                0,
                0.7071067094802856
            ],
            "scale" : [
                1.0495831966400146,
                1.0495833158493042,
                1.0495833158493042
            ],
            "translation" : [
                -0.0019848241936415434,
                -0.004961275029927492,
                -0.0005330517305992544
            ]
        }
    ],
    "materials" : [
        {
            "doubleSided" : true,
            "emissiveFactor" : [
                0,
                0,
                0
            ],
            "name" : "\u30de\u30c6\u30ea\u30a2\u30eb",
            "pbrMetallicRoughness" : {
                "baseColorTexture" : {
                    "index" : 0,
                    "texCoord" : 0
                },
                "metallicFactor" : 0,
                "roughnessFactor" : 0.5
            }
        }
    ],
    "meshes" : [
        {
            "name" : "mesh.001",
            "primitives" : [
                {
                    "attributes" : {
                        "POSITION" : 0,
                        "NORMAL" : 1,
                        "TEXCOORD_0" : 2
                    },
                    "indices" : 3,
                    "material" : 0
                }
            ]
        }
    ],
    "textures" : [
        {
            "source" : 0
        }
    ],
    "images" : [
        {
            "bufferView" : 4,
            "mimeType" : "image/png",
            "name" : "hitokage_lowpoli"
        }
    ],
    "accessors" : [
        {
            "bufferView" : 0,
            "componentType" : 5126,
            "count" : 8095,
            "max" : [
                0.1393248438835144,
                0.09389916807413101,
                -0.019348882138729095
            ],
            "min" : [
                -0.16001340746879578,
                -0.10719921439886093,
                -0.2778843343257904
            ],
            "type" : "VEC3"
        },
        {
            "bufferView" : 1,
            "componentType" : 5126,
            "count" : 8095,
            "type" : "VEC3"
        },
        {
            "bufferView" : 2,
            "componentType" : 5126,
            "count" : 8095,
            "type" : "VEC2"
        },
        {
            "bufferView" : 3,
            "componentType" : 5123,
            "count" : 12252,
            "type" : "SCALAR"
        }
    ],
    "bufferViews" : [
        {
            "buffer" : 0,
            "byteLength" : 97140,
            "byteOffset" : 0
        },
        {
            "buffer" : 0,
            "byteLength" : 97140,
            "byteOffset" : 97140
        },
        {
            "buffer" : 0,
            "byteLength" : 64760,
            "byteOffset" : 194280
        },
        {
            "buffer" : 0,
            "byteLength" : 24504,
            "byteOffset" : 259040
        },
        {
            "buffer" : 0,
            "byteLength" : 351129,
            "byteOffset" : 283544
        }
    ],
    "buffers" : [
        {
            "byteLength" : 634676,
            "uri" : "data:application/octet-stream;base64,"
        }
    ]
}
