{
    "asset" : {
        "generator" : "Khronos glTF Blender I/O v1.1.45",
        "version" : "2.0"
    },
    "scene" : 0,
    "scenes" : [
        {
            "name" : "Scene",
            "nodes" : [
                0
            ]
        }
    ],
    "nodes" : [
        {
            "mesh" : 0,
            "name" : "lowpoli",
            "rotation" : [
                0.7071068286895752,
                0,
                0,
                0.7071067094802856
            ],
            "scale" : [
                1.0734541416168213,
                1.0734542608261108,
                1.0734542608261108
            ],
            "translation" : [
                -0.003003165125846863,
                -0.010579336434602737,
                0.0016228386666625738
            ]
        }
    ],
    "materials" : [
        {
            "doubleSided" : true,
            "emissiveFactor" : [
                0,
                0,
                0
            ],
            "name" : "\u30de\u30c6\u30ea\u30a2\u30eb",
            "pbrMetallicRoughness" : {
                "baseColorTexture" : {
                    "index" : 0,
                    "texCoord" : 0
                },
                "metallicFactor" : 0,
                "roughnessFactor" : 0.5
            }
        }
    ],
    "meshes" : [
        {
            "name" : "mesh.001",
            "primitives" : [
                {
                    "attributes" : {
                        "POSITION" : 0,
                        "NORMAL" : 1,
                        "TEXCOORD_0" : 2
                    },
                    "indices" : 3,
                    "material" : 0
                }
            ]
        }
    ],
    "textures" : [
        {
            "source" : 0
        }
    ],
    "images" : [
        {
            "bufferView" : 4,
            "mimeType" : "image/png",
            "name" : "kabigon_lowpoli"
        }
    ],
    "accessors" : [
        {
            "bufferView" : 0,
            "componentType" : 5126,
            "count" : 3722,
            "max" : [
                0.17881959676742554,
                0.10335439443588257,
                -0.017998065799474716
            ],
            "min" : [
                -0.18530619144439697,
                -0.12964442372322083,
                -0.3587016761302948
            ],
            "type" : "VEC3"
        },
        {
            "bufferView" : 1,
            "componentType" : 5126,
            "count" : 3722,
            "type" : "VEC3"
        },
        {
            "bufferView" : 2,
            "componentType" : 5126,
            "count" : 3722,
            "type" : "VEC2"
        },
        {
            "bufferView" : 3,
            "componentType" : 5123,
            "count" : 16056,
            "type" : "SCALAR"
        }
    ],
    "bufferViews" : [
        {
            "buffer" : 0,
            "byteLength" : 44664,
            "byteOffset" : 0
        },
        {
            "buffer" : 0,
            "byteLength" : 44664,
            "byteOffset" : 44664
        },
        {
            "buffer" : 0,
            "byteLength" : 29776,
            "byteOffset" : 89328
        },
        {
            "buffer" : 0,
            "byteLength" : 32112,
            "byteOffset" : 119104
        },
        {
            "buffer" : 0,
            "byteLength" : 399200,
            "byteOffset" : 151216
        }
    ],
    "buffers" : [
        {
            "byteLength" : 550416,
            "uri" : "data:application/octet-stream;base64,"
        }
    ]
}
